<svg
      xmlns="http://www.w3.org/2000/svg"
      width="24"
      height="24"
      viewBox="0 0 24 24"
      style="display: none;"
    >
      <symbol id="icons-favorite" width="24" height="24" viewBox="0 0 24 24">
        <path d="M0 0h24v24H0z" fill="none" />
        <path
          d="M12 21.35l-1.45-1.32C5.4 15.36 2 12.28 2 8.5 2 5.42 4.42 3 7.5 3c1.74 0 3.41.81 4.5 2.09C13.09 3.81 14.76 3 16.5 3 19.58 3 22 5.42 22 8.5c0 3.78-3.4 6.86-8.55 11.54L12 21.35z"
        />
      </symbol>
      <symbol id="icons-copy" width="24" height="24" viewBox="0 0 24 24">
        <path fill="none" d="M0 0h24v24H0V0z" />
        <path
          d="M16 1H4c-1.1 0-2 .9-2 2v14h2V3h12V1zm-1 4H8c-1.1 0-1.99.9-1.99 2L6 21c0 1.1.89 2 1.99 2H19c1.1 0 2-.9 2-2V11l-6-6zM8 21V7h6v5h5v9H8z"
        />
      </symbol>
      <symbol id="icons-refresh" width="24" height="24" viewBox="0 0 24 24">
        <path fill="none" d="M0 0h24v24H0V0z" />
        <path
          d="M17.65 6.35C16.2 4.9 14.21 4 12 4c-4.42 0-7.99 3.58-7.99 8s3.57 8 7.99 8c3.73 0 6.84-2.55 7.73-6h-2.08c-.82 2.33-3.04 4-5.65 4-3.31 0-6-2.69-6-6s2.69-6 6-6c1.66 0 3.14.69 4.22 1.78L13 11h7V4l-2.35 2.35z"
        />
      </symbol>
    </svg>